PathFileType  4	(X/Y/Z) C:\Users\antoi\Documents\MyRepositories\mobilecap\ResultsAnalysis
DataRate	CameraRate	NumFrames	NumMarkers	Units	OrigDataRate	OrigDataStartFrame	OrigNumFrames
100.0	100.0	4	51	mm	100.0	51	135
Frame#	Time	r_knee			r_shank_antsup			r_ankle			r_calc			r_5meta			r_toe			L_knee			L_shank_antsup			L_ankle			L_calc			L_5meta			L_toe			r_sh2			r_sh3			r_sh4			L_sh2			L_sh3			r_thigh1			r_thigh2			r_thigh3			r_thigh4			r_thigh5			L_thigh1			L_thigh2			L_thigh3			L_thigh4			r.ASIS			r.PSIS			L.ASIS			L.PSIS			C7			R_Shoulder			L_Shoulder			R_Sternum			L_Sternum			R_humerus			R_elbow_med			R_elbow_lat			R_forearm			R_wrist_radius			R_wrist_ulna			L_humerus			L_elbow_med			L_elbow_lat			L_forearm			L_wrist_radius			L_wrist_ulna			R_HJC			L_HJC			R_HJC_reg			L_HJC_reg			
		X1	Y1	Z1	X2	Y2	Z2	X3	Y3	Z3	X4	Y4	Z4	X5	Y5	Z5	X6	Y6	Z6	X7	Y7	Z7	X8	Y8	Z8	X9	Y9	Z9	X10	Y10	Z10	X11	Y11	Z11	X12	Y12	Z12	X13	Y13	Z13	X14	Y14	Z14	X15	Y15	Z15	X16	Y16	Z16	X17	Y17	Z17	X18	Y18	Z18	X19	Y19	Z19	X20	Y20	Z20	X21	Y21	Z21	X22	Y22	Z22	X23	Y23	Z23	X24	Y24	Z24	X25	Y25	Z25	X26	Y26	Z26	X27	Y27	Z27	X28	Y28	Z28	X29	Y29	Z29	X30	Y30	Z30	X31	Y31	Z31	X32	Y32	Z32	X33	Y33	Z33	X34	Y34	Z34	X35	Y35	Z35	X36	Y36	Z36	X37	Y37	Z37	X38	Y38	Z38	X39	Y39	Z39	X40	Y40	Z40	X41	Y41	Z41	X42	Y42	Z42	X43	Y43	Z43	X44	Y44	Z44	X45	Y45	Z45	X46	Y46	Z46	X47	Y47	Z47	X48	Y48	Z48	X49	Y49	Z49	X50	Y50	Z50	X51	Y51	Z51	

51	0.50000000	409.80599	488.53495	-41.88954	425.37704	411.24362	-62.18113	259.78522	109.12346	-98.43875	187.66712	83.59032	-139.64108	353.13725	42.44866	-62.56033	407.22026	65.64392	-115.28236	673.09200	490.16572	-292.09235	735.34757	419.76125	-302.73771	811.05577	111.89741	-267.95576	776.94247	55.70780	-207.53134	927.89187	90.87169	-321.86744	962.26992	140.46902	-280.27562	370.24228	308.73914	-47.73955	353.07362	443.36469	-33.88772	303.01640	342.97232	-42.32093	651.19378	395.90884	-286.18307	694.44769	282.14025	-291.89710	557.77945	778.16145	7.16376	526.36057	671.12508	-9.69939	417.37794	692.08133	4.71837	449.41361	803.77603	31.78216	465.94170	662.10381	14.90350	593.13425	741.91109	-350.99487	655.10100	621.25516	-324.79749	498.45204	701.25053	-294.54550	565.88555	576.85777	-279.22617	603.61580	951.61458	-28.33764	416.16321	996.90573	-115.08359	610.17103	928.18845	-278.83448	409.93476	992.88760	-215.39668	416.98469	1393.64324	-165.67535	547.74542	1364.70036	-7.11431	464.71946	1364.29721	-353.14557	560.47601	1369.66770	-168.55890	557.99619	1371.13433	-212.61325	597.10061	1241.04807	49.26912	604.63776	1018.43156	22.45976	631.13849	1045.15149	83.29992	760.18193	986.56705	63.63131	864.49856	902.96010	38.14100	852.15220	881.74470	64.30888	431.81518	1253.44761	-406.33854	347.88497	1046.09491	-300.31652	324.81593	1068.98127	-372.66185	319.72444	960.54344	-406.07049	254.98241	813.30076	-415.76946	226.11862	832.23492	-418.29657	521.26036	875.53757	-49.50136	525.31748	861.03062	-255.42380	533.92370	875.40277	-55.87097	523.63855	868.76669	-221.52661	
52	0.51000000	419.03081	487.32756	-41.74122	433.80611	409.61354	-61.93417	261.35139	110.76729	-97.79741	188.75871	86.28102	-139.11312	353.00864	42.17850	-62.15132	407.99090	65.15726	-114.88117	686.84569	489.70054	-292.48264	748.44793	418.03577	-301.93217	816.97682	109.11085	-266.88857	780.54473	54.45473	-207.58815	934.25080	86.50030	-318.83190	969.03805	134.85605	-276.13367	376.10345	308.01183	-47.72488	361.98512	442.93693	-33.76830	309.74981	343.75784	-41.90129	663.29592	395.68733	-287.83575	704.33739	281.24371	-293.28011	568.00225	776.47841	7.17692	536.27390	669.55654	-9.31629	427.25588	690.98008	4.15101	459.60607	802.66818	30.97899	475.67029	660.86480	14.87486	607.04328	741.76216	-350.71502	669.00741	621.15774	-324.41671	511.67668	700.48244	-296.30529	579.08509	576.17740	-280.73993	614.96563	949.99102	-28.11167	427.76937	995.07183	-116.22030	622.40419	926.38647	-278.86348	421.72665	991.19246	-216.50362	428.37414	1391.93385	-167.29410	558.87191	1363.15086	-8.32865	476.65076	1362.57675	-354.72112	571.92814	1368.21231	-169.84833	569.64987	1369.54385	-213.90616	608.09473	1239.51592	48.16820	615.68237	1016.75474	21.89219	642.04793	1043.72760	82.64300	771.31145	985.56600	63.06137	876.05392	902.53912	37.57803	863.91204	881.29625	63.71669	443.35731	1251.92178	-407.97300	357.03672	1045.89299	-301.00708	333.93996	1069.15544	-373.28653	326.54632	961.09623	-406.77139	259.20692	815.21813	-416.29026	230.13411	834.56707	-417.83088	532.52205	873.88536	-49.88965	537.54604	859.22144	-255.78358	545.57343	873.38382	-55.89420	535.57860	866.96783	-221.76855	
53	0.52000000	428.78928	486.08597	-41.70139	442.76313	408.03551	-61.75065	263.11091	112.69474	-97.15906	190.11302	89.55613	-138.48086	352.83650	41.84383	-61.75488	408.85020	64.62475	-114.51914	700.45686	489.32914	-293.12927	761.04869	416.22024	-301.31694	821.95258	106.33297	-265.57526	782.89145	53.94034	-207.21733	939.25225	81.36060	-315.59202	974.91435	128.21964	-271.93717	382.27797	307.39731	-47.75920	371.39435	442.55009	-33.77110	316.88166	344.69205	-41.57177	674.99225	395.61012	-289.17483	713.59610	280.43077	-294.10414	578.51435	774.87127	7.05618	546.57173	668.03155	-9.06704	437.48936	689.86397	3.54347	470.07123	801.56763	30.04032	485.79397	659.63289	14.75929	621.76955	742.20835	-350.52790	683.49021	621.47012	-324.38444	525.40091	700.07598	-298.91719	592.63243	575.93560	-282.96006	626.57416	948.27956	-27.91435	439.59737	993.39429	-117.21853	634.78988	925.00863	-278.99990	433.67461	989.81345	-217.48517	439.82785	1390.49989	-168.96371	570.08379	1361.94109	-9.60772	488.65495	1361.03993	-356.33278	583.43517	1367.00740	-171.19657	581.34926	1368.19546	-215.24827	618.99250	1238.25080	47.05394	626.41396	1015.38289	21.18281	652.63904	1042.51990	81.91191	782.02966	984.54896	62.54765	887.10810	901.90635	37.19551	875.10330	880.67962	63.36205	455.11391	1250.51030	-409.61189	366.93155	1045.57282	-301.88514	343.77027	1069.19437	-374.11655	334.42414	961.47979	-407.60754	264.70151	816.84232	-416.99668	235.56273	836.62690	-417.82734	544.01485	872.21532	-50.43779	549.90830	857.80516	-256.32727	557.44690	871.41190	-56.03081	547.63428	865.48151	-222.14676	
54	0.53000000	439.12454	484.86318	-41.78013	452.17414	406.52091	-61.65340	265.11258	114.98177	-96.53090	191.79181	93.50779	-137.76927	352.74073	41.54050	-61.39686	409.81155	64.03044	-114.18548	713.55529	488.96251	-293.83638	773.06311	414.43783	-300.83084	826.60290	103.81540	-264.17314	784.83832	54.15505	-206.52708	943.39579	75.98563	-312.51451	980.34926	121.12425	-268.07671	388.78413	306.98463	-47.79098	381.30879	442.29004	-33.89166	324.42318	345.85016	-41.36366	686.29612	395.58675	-290.04128	722.50627	279.69723	-294.31302	589.39285	773.38210	6.74989	557.32348	666.59021	-9.04261	448.14883	688.77057	2.84990	480.89387	800.50394	28.96883	496.37099	658.44634	14.49177	636.98031	743.01029	-350.53714	698.16287	621.96131	-324.61812	539.43033	700.04041	-302.04615	606.25104	576.05886	-285.52097	638.45806	946.52674	-27.83445	451.66354	991.90137	-118.09411	647.34833	924.14037	-279.29908	445.80434	988.78497	-218.35935	451.34593	1389.36517	-170.66091	581.38073	1361.10542	-10.93548	500.74008	1359.71371	-357.95187	595.00158	1366.07047	-172.58449	593.09667	1367.11056	-216.61653	629.80849	1237.29001	45.95029	636.82376	1014.35578	20.31976	662.90167	1041.55431	81.11162	792.32347	983.54460	62.09040	897.65688	901.08616	36.98642	885.66603	879.89175	63.24554	467.07810	1249.25790	-411.21302	377.53492	1045.15994	-302.95211	354.26289	1069.11181	-375.13906	343.36959	961.67977	-408.58612	271.52277	818.12744	-417.87573	242.47938	838.32863	-418.32823	555.78898	870.56119	-51.20727	562.43343	856.85002	-257.11785	569.57098	869.54267	-56.37829	559.84921	864.37529	-222.73554	
